<svg width="104" height="48" viewBox="0 0 104 48" fill="none" xmlns="http://www.w3.org/2000/svg">
<g clip-path="url(#clip0_79_342)">
<path d="M7.37384 24.0121C8.56629 24.7452 9.49511 25.567 10.1684 26.4733C10.8417 27.3797 11.3081 28.5398 11.5758 29.9456C11.8435 31.3515 11.9774 33.1561 11.9774 35.3555C11.9774 37.003 12.0139 38.2195 12.0909 39.005C12.168 39.7905 12.3181 40.3827 12.5452 40.7936C12.7723 41.2044 13.0441 41.4663 13.3645 41.5952C13.6849 41.7241 14.2284 41.8409 14.9991 41.9577C15.6358 42.0423 16.1631 42.3484 16.5849 42.8842C17.0068 43.4199 17.2136 44.1168 17.2136 44.9829C17.2136 46.997 15.9806 48.0081 13.5146 48.0081C11.9895 48.0081 10.6267 47.6898 9.42616 47.0574C8.22559 46.425 7.30083 45.5307 6.64782 44.3706C5.99481 43.2105 5.65817 41.8852 5.64194 40.3867C5.59327 37.853 5.54054 35.8228 5.49187 34.288C5.4432 32.7533 5.36614 31.7623 5.26474 31.3152C5.01327 30.1994 4.64012 29.3575 4.14529 28.7895C3.65046 28.2216 3.00557 27.6939 2.20654 27.2024C1.40751 26.711 0.843735 26.2679 0.50709 25.8771C0.170445 25.4864 0.00415039 24.8661 0.00415039 24.0161C0.00415039 22.7835 0.490866 21.857 1.4643 21.2407C2.67298 20.4914 3.53284 19.855 4.04389 19.3273C4.55494 18.7996 4.91593 18.1269 5.12684 17.3051C5.33775 16.4834 5.45942 15.5811 5.49187 14.6062C5.52432 13.6314 5.57705 11.287 5.64194 7.57301C5.69061 5.27291 6.42474 3.43605 7.84433 2.06244C9.25581 0.688822 11.1459 0 13.5105 0C15.8751 0 17.2096 0.990937 17.2096 2.97281C17.2096 3.8711 17.0027 4.58006 16.5931 5.09567C16.1834 5.61128 15.648 5.91339 14.995 5.99396C14.0216 6.12689 13.3442 6.3283 12.9589 6.59416C12.5736 6.86002 12.3221 7.37563 12.2045 8.14501C12.0869 8.9144 12.0098 10.3927 11.9774 12.5921C11.9449 14.7392 11.8151 16.5035 11.588 17.8771C11.3609 19.2508 10.9188 20.423 10.2536 21.3897C9.5884 22.3565 8.63119 23.2306 7.37384 24.0121Z" fill="white"/>
<path d="M95.8303 24.0121C94.9258 23.4441 94.1876 22.856 93.6158 22.2397C93.0439 21.6234 92.5774 20.8741 92.2083 19.9919C91.8392 19.1098 91.5797 18.0624 91.4296 16.854C91.2795 15.6455 91.2025 14.2276 91.2025 12.5921C91.2025 10.9567 91.17 9.79658 91.1011 8.95468C91.0321 8.11279 90.8983 7.5005 90.6995 7.11782C90.5008 6.73515 90.2169 6.47331 89.8559 6.33233C89.4949 6.19134 88.9473 6.07855 88.2091 5.99396C87.5886 5.90937 87.0654 5.61128 86.6354 5.09567C86.2055 4.58006 85.9946 3.8711 85.9946 2.97281C85.9946 0.990937 87.2114 0 89.6409 0C91.2025 0 92.5734 0.314199 93.7537 0.93857C94.9339 1.56294 95.8668 2.45317 96.5482 3.61329C97.2256 4.76939 97.5744 6.09063 97.5906 7.57301C97.692 13.1037 97.8096 16.145 97.9435 16.6928C98.2112 17.7925 98.6046 18.6304 99.1278 19.2024C99.651 19.7744 100.276 20.286 101.014 20.7251C101.752 21.1641 102.3 21.6032 102.661 22.0383C103.022 22.4733 103.2 23.1299 103.2 24.0121C103.2 25.2608 102.721 26.1793 101.764 26.7593C100.592 27.4763 99.7403 28.1047 99.2089 28.6445C98.6776 29.1843 98.3126 29.861 98.1016 30.6667C97.8907 31.4723 97.765 32.6848 97.7244 34.3041C97.6839 35.9235 97.6352 37.9456 97.5865 40.3746C97.5379 42.6747 96.7956 44.5196 95.3598 45.9094C93.924 47.2991 92.0177 47.996 89.6368 47.996C88.4647 47.996 87.5602 47.7382 86.9315 47.2226C86.3028 46.7069 85.9865 45.9577 85.9865 44.9748C85.9865 44.427 86.0879 43.9194 86.2866 43.4642C86.4854 43.0091 86.7531 42.6506 87.0775 42.4008C87.402 42.1511 87.7792 42.002 88.197 41.9496C88.9514 41.8489 89.5152 41.7241 89.8843 41.575C90.2534 41.426 90.5332 41.14 90.7279 40.7251C90.9226 40.3102 91.0483 39.6979 91.1051 38.8882C91.1619 38.0785 91.1943 36.9023 91.1943 35.3515C91.2268 33.0514 91.3606 31.2548 91.5959 29.9537C91.8311 28.6526 92.2732 27.5368 92.9303 26.6062C93.5874 25.6757 94.5486 24.8056 95.8222 24.0081L95.8303 24.0121Z" fill="white"/>
<path d="M42.4578 43.5444H38.9494C32.5491 43.5444 27.3413 38.1788 27.3413 31.5847V14.344C27.3413 7.74984 32.5491 2.38428 38.9494 2.38428H56.4185C61.4641 2.38428 65.9784 5.42154 67.6697 9.86464H79.4848V24.3581C79.4848 29.1597 75.3396 33.063 70.2453 33.063H53.9808C53.267 39.0127 48.3714 43.5404 42.4538 43.5404L42.4578 43.5444ZM56.4225 4.37823H38.9535C33.7213 4.37823 29.4625 8.84953 29.4625 14.344V31.5847C29.4625 37.0791 33.7213 41.5464 38.9535 41.5464H42.4619C47.5562 41.5464 51.7257 37.3651 51.9529 32.0278L51.9934 31.0691H70.2534C74.1796 31.0691 77.3757 28.06 77.3757 24.3581V11.8586H66.1041L65.8851 11.1335C64.6886 7.15366 60.7989 4.37421 56.4266 4.37421L56.4225 4.37823Z" fill="white" stroke="white" stroke-width="4" stroke-miterlimit="10"/>
<path d="M59.2252 14.9041C60.8022 14.9041 62.0806 13.6994 62.0806 12.2133C62.0806 10.7272 60.8022 9.52246 59.2252 9.52246C57.6482 9.52246 56.3698 10.7272 56.3698 12.2133C56.3698 13.6994 57.6482 14.9041 59.2252 14.9041Z" fill="white"/>
<path d="M42.3159 1.29688H38.8075C31.9417 1.29688 26.3759 6.82456 26.3759 13.6433V34.4771C26.3759 41.2959 31.9417 46.8236 38.8075 46.8236H42.3159C49.1816 46.8236 54.7474 41.2959 54.7474 34.4771V13.6433C54.7474 6.82456 49.1816 1.29688 42.3159 1.29688Z" fill="white"/>
</g>
<defs>
<clipPath id="clip0_79_342">
<rect width="103.2" height="48" fill="white"/>
</clipPath>
</defs>
</svg>
