<svg width="28" height="28" viewBox="0 0 28 28" fill="none" xmlns="http://www.w3.org/2000/svg">
<g clip-path="url(#clip0_102_257)">
<path d="M5.5625 14C7.1158 14 8.375 12.7408 8.375 11.1875C8.375 9.6342 7.1158 8.375 5.5625 8.375C4.0092 8.375 2.75 9.6342 2.75 11.1875C2.75 12.7408 4.0092 14 5.5625 14Z" fill="#E83274"/>
<path d="M10.625 9.5C12.1783 9.5 13.4375 8.2408 13.4375 6.6875C13.4375 5.1342 12.1783 3.875 10.625 3.875C9.0717 3.875 7.8125 5.1342 7.8125 6.6875C7.8125 8.2408 9.0717 9.5 10.625 9.5Z" fill="#E83274"/>
<path d="M17.375 9.5C18.9283 9.5 20.1875 8.2408 20.1875 6.6875C20.1875 5.1342 18.9283 3.875 17.375 3.875C15.8217 3.875 14.5625 5.1342 14.5625 6.6875C14.5625 8.2408 15.8217 9.5 17.375 9.5Z" fill="#E83274"/>
<path d="M22.4375 14C23.9908 14 25.25 12.7408 25.25 11.1875C25.25 9.6342 23.9908 8.375 22.4375 8.375C20.8842 8.375 19.625 9.6342 19.625 11.1875C19.625 12.7408 20.8842 14 22.4375 14Z" fill="#E83274"/>
<path d="M20.0075 17.2175C19.0288 16.07 18.2075 15.0912 17.2175 13.9437C16.7 13.3362 16.0363 12.7288 15.2488 12.4588C15.125 12.4138 15.0013 12.38 14.8775 12.3575C14.5963 12.3125 14.2925 12.3125 14 12.3125C13.7075 12.3125 13.4038 12.3125 13.1113 12.3688C12.9875 12.3913 12.8638 12.425 12.74 12.47C11.9525 12.74 11.3 13.3475 10.7713 13.955C9.7925 15.1025 8.97125 16.0812 7.98125 17.2287C6.5075 18.7025 4.69625 20.3337 5.03375 22.6175C5.36 23.765 6.18125 24.9012 7.655 25.2275C8.47625 25.3962 11.0975 24.7325 13.8875 24.7325H14.09C16.88 24.7325 19.5013 25.385 20.3225 25.2275C21.7963 24.9012 22.6175 23.7537 22.9438 22.6175C23.2925 20.3225 21.4813 18.6912 20.0075 17.2175Z" fill="#E83274"/>
</g>
<defs>
<clipPath id="clip0_102_257">
<rect width="27" height="27" fill="white" transform="translate(0.5 0.5)"/>
</clipPath>
</defs>
</svg>
